# xmcd
#
# Track frame offsets: 
#        150
#        13563
#        30580
#        44992
#        64178
#        82399
#        94714
#        112000
#        132833
#        146825
#        167407
#        183518
#        201447
#        217282
#        229501
#        250307
#        266892
#        288300
#        306901
#
# Disc length: 4417 seconds
#
# Revision: 0
# Processed by: cddbd v1.5.2PL0 Copyright (c) Steve Scherf et al.
# Submitted via: ExactAudioCopy v0.99pb3
#
DISCID=2c113f13
DTITLE=Carl Sonny Leyland Trio Meets Nathan James And Ben Hernandez - 
DTITLE=The Carl Sonny Leyland Trio Meets Nathan James And Ben Hernande
DTITLE=z
DYEAR=2006
DGENRE=Blues
TTITLE0=515 Miles
TTITLE1=Don't Know What You Did
TTITLE2=Take A Girl Like You
TTITLE3=Sweet Little Woman
TTITLE4=Hooray Hooray (These Women Is Killin' Me)
TTITLE5=City Blues
TTITLE6=Early Tuesday Morning
TTITLE7=Run Me Ragged
TTITLE8=Worn Out Wagon
TTITLE9=Make Your Own Mind
TTITLE10=Wonderful Time
TTITLE11=Black Rattler
TTITLE12=One Thing I Don't Understand
TTITLE13=Oh Red
TTITLE14=Sending Up My Timber
TTITLE15=The Prisoner's Song
TTITLE16=Mystery Train
TTITLE17=Nightmare Blues
TTITLE18=Jumpin' At The Jamboree
EXTD=
EXTT0=
EXTT1=
EXTT2=
EXTT3=
EXTT4=
EXTT5=
EXTT6=
EXTT7=
EXTT8=
EXTT9=
EXTT10=
EXTT11=
EXTT12=
EXTT13=
EXTT14=
EXTT15=
EXTT16=
EXTT17=
EXTT18=
PLAYORDER=
